<?xml version="1.0" encoding="utf-8"?>
<!-- Generator: Adobe Illustrator 24.2.3, SVG Export Plug-In . SVG Version: 6.00 Build 0)  -->
<svg version="1.1" id="Camada_1" xmlns="http://www.w3.org/2000/svg" xmlns:xlink="http://www.w3.org/1999/xlink" x="0px" y="0px"
	 viewBox="0 0 619.3 137" style="enable-background:new 0 0 619.3 137;" xml:space="preserve">
<style type="text/css">
	.st0{fill:#FFFFFF;}
	.st1{fill:none;stroke:#F6B048;stroke-width:2.561;stroke-miterlimit:22.926;}
	.st2{fill:#00843A;}
	.st3{fill-rule:evenodd;clip-rule:evenodd;fill:#E1313B;}
	.st4{fill-rule:evenodd;clip-rule:evenodd;fill:#F6B048;}
</style>
<g>
	<circle class="st0" cx="62.5" cy="69" r="62.5"/>
	<path class="st1" d="M62.5,6.5c34.5,0,62.5,28,62.5,62.5s-28,62.5-62.5,62.5S0,103.4,0,69S28,6.5,62.5,6.5"/>
	<line class="st1" x1="19.1" y1="112.4" x2="105.9" y2="25.5"/>
	<rect x="49.9" y="7.4" class="st2" width="25.8" height="123.1"/>
	<rect x="1.2" y="56.1" class="st2" width="123.1" height="25.8"/>
	<line class="st1" x1="1.8" y1="82.1" x2="123.2" y2="82.1"/>
	<line class="st1" x1="1.8" y1="55.8" x2="123.2" y2="55.8"/>
	<line class="st1" x1="19.1" y1="25.5" x2="105.9" y2="112.4"/>
	<line class="st1" x1="49.3" y1="8.2" x2="49.3" y2="129.7"/>
	<line class="st1" x1="75.7" y1="8.2" x2="75.7" y2="129.7"/>
	<path class="st3" d="M62.5,42.6c14.5,0,26.3,11.8,26.3,26.3S77.1,95.3,62.5,95.3c-14.5,0-26.3-11.8-26.3-26.3
		C36.2,54.4,48,42.6,62.5,42.6z"/>
	<path class="st1" d="M62.5,42.6c14.5,0,26.3,11.8,26.3,26.3S77.1,95.3,62.5,95.3c-14.5,0-26.3-11.8-26.3-26.3
		C36.2,54.4,48,42.6,62.5,42.6z"/>
	<path class="st4" d="M62.5,54.9c7.8,0,14.1,6.3,14.1,14.1S70.3,83,62.5,83c-7.8,0-14.1-6.3-14.1-14.1S54.7,54.9,62.5,54.9"/>
	<path class="st1" d="M62.5,6.5c34.5,0,62.5,28,62.5,62.5c0,34.5-28,62.5-62.5,62.5S0,103.4,0,69S28,6.5,62.5,6.5z"/>
</g>
<path class="st0" d="M565.3,69.7l-4.2-10.9l-4.4,10.9H565.3z M547.7,82.3l13.3-32.5c0.3,0,0.5,0.1,0.8,0.1c0.3,0,0.6,0,0.9,0.1
	c1-0.1,1.7-0.1,1.8-0.1l13,32.5c-0.5,0-1.2-0.1-2.2-0.1c-0.9,0-1.6-0.1-2.1-0.1c-0.4,0-1,0.1-1.9,0.1c-0.8,0-1.5,0.1-1.9,0.1
	c-1-3.2-2.1-6.4-3.3-9.7h-11c-0.2,0.5-0.5,1.6-1.1,3.2c-0.6,1.6-1,2.9-1.4,3.8c-0.3,0.9-0.6,1.8-0.8,2.7c-0.3,0-0.7-0.1-1.2-0.1
	c-0.5,0-0.9-0.1-1.2-0.1c-0.2,0-0.5,0.1-1,0.1C548.3,82.2,548,82.3,547.7,82.3z M517,67.3c0.1-4.7,1.1-8.4,3.2-11
	c2.1-2.7,4.5-4.5,7.2-5.4c2.7-1,5.4-1.4,7.9-1.4c2.3,0,4.3,0.2,6.1,0.8c1.8,0.5,3.1,1,3.8,1.5c-0.3,1.3-0.7,2.9-1.1,4.8h-0.6
	c-1-1.4-2.2-2.5-3.6-3.2c-1.4-0.7-2.8-1.1-4.2-1.1c-2.1,0-4,0.6-5.6,1.7s-3,2.8-3.9,5c-1,2.2-1.4,4.7-1.4,7.7c0,2.6,0.4,4.9,1.3,7
	c0.8,2,2.1,3.6,3.8,4.8s3.8,1.7,6.2,1.7c1.3,0,2.8-0.3,4.4-0.9s2.9-1.5,3.9-2.5l0.7,0.3l-1.1,4c-2.4,1.3-5.5,2-9.3,2
	c-2.7,0-5.2-0.4-7.4-1.2c-2.2-0.8-4.1-2-5.6-3.4c-1.5-1.5-2.7-3.1-3.5-5C517.4,71.4,517,69.4,517,67.3z M504.6,50.2
	c0.8,0.1,1.9,0.1,3.5,0.3c1.5-0.1,2.7-0.2,3.5-0.3v32.2c-1.2-0.2-2.5-0.3-3.6-0.3c-1,0-2.1,0.1-3.3,0.3L504.6,50.2L504.6,50.2z
	 M467.9,82.3V50.2h4.7c1.4,1.5,2.9,3.2,4.7,5.1c1.8,1.9,3.6,3.8,5.4,5.8c1.9,1.9,3.6,3.8,5.2,5.6c1.6,1.8,3.2,3.6,4.8,5.4V50.2
	c0.2,0,0.5,0.1,0.9,0.1s0.7,0.1,0.9,0.1c0.2,0,0.5-0.1,1-0.1c0.4,0,0.7-0.1,1-0.1v32.2l-3.9-0.1c-5.2-5.8-9.1-10.1-11.8-13.1
	c-2.7-2.9-5.7-6.1-9.1-9.6v22.6c-0.3,0-0.6-0.1-1.1-0.1c-0.4,0-0.8-0.1-1-0.1c-0.2,0-0.4,0.1-0.8,0.1
	C468.4,82.2,468.1,82.3,467.9,82.3z M441.5,47.1l5.6-8.2h4.3l5.8,8.2h-2.8l-5.2-4.7l-5.3,4.7H441.5z M451,69.7l-4.2-10.9l-4.4,10.9
	H451z M433.4,82.3l13.3-32.5c0.3,0,0.5,0.1,0.8,0.1c0.3,0,0.6,0,0.9,0.1c1-0.1,1.7-0.1,1.8-0.1l13,32.5c-0.5,0-1.2-0.1-2.1-0.1
	c-0.9,0-1.6-0.1-2.1-0.1c-0.4,0-1,0.1-1.9,0.1c-0.8,0-1.5,0.1-1.9,0.1c-1-3.2-2.1-6.4-3.3-9.7h-11c-0.2,0.5-0.5,1.6-1.1,3.2
	c-0.6,1.6-1,2.9-1.4,3.8c-0.3,0.9-0.6,1.8-0.8,2.7c-0.3,0-0.6-0.1-1.1-0.1c-0.5,0-0.9-0.1-1.2-0.1c-0.2,0-0.5,0.1-1,0.1
	C434,82.2,433.7,82.3,433.4,82.3z M421.6,50.2c0.8,0.1,1.9,0.1,3.5,0.3c1.5-0.1,2.7-0.2,3.5-0.3v32.2c-1.2-0.2-2.5-0.3-3.6-0.3
	c-1,0-2.1,0.1-3.3,0.3L421.6,50.2L421.6,50.2z M397.2,75h0.9c0.4,1.5,1.1,2.7,2.1,3.6c1.1,0.9,2.5,1.4,4.4,1.5
	c1.5,0,2.8-0.4,3.8-1.3c1-0.9,1.5-2.1,1.5-3.5c0-1.3-0.5-2.4-1.4-3.4c-0.9-0.9-2.5-1.9-4.8-2.8c-1.7-0.8-3.2-1.6-4.3-2.4
	c-1.1-0.8-2-1.9-2.6-3.1s-0.9-2.6-0.9-4.3c0-1.8,0.4-3.4,1.2-4.9s2-2.7,3.6-3.6c1.6-0.9,3.7-1.4,6.1-1.4c1.4,0,2.7,0.2,4.1,0.6
	c1.4,0.4,2.4,0.9,3.2,1.6c-0.2,0.7-0.5,1.5-0.8,2.3s-0.5,1.6-0.8,2.4h-0.7c-0.4-1.1-1-2.1-1.9-2.9c-0.9-0.8-2.1-1.2-3.4-1.2
	c-3.5,0-5.2,1.6-5.2,4.7c0,1.8,1.4,3.3,4.1,4.7l3.5,1.7c2.6,1.2,4.3,2.7,5.3,4.3c0.9,1.6,1.4,3.4,1.4,5.3c0,1.6-0.4,3.1-1.1,4.3
	c-0.7,1.2-1.6,2.3-2.9,3.2c-1.2,0.9-2.5,1.5-4,1.9c-1.5,0.4-3,0.6-4.5,0.6c-2.9-0.1-5.4-0.8-7.5-2C396.5,78.9,396.9,76.9,397.2,75z
	 M373.8,75h0.9c0.4,1.5,1.1,2.7,2.1,3.6c1.1,0.9,2.5,1.4,4.4,1.5c1.5,0,2.8-0.4,3.8-1.3c1-0.9,1.5-2.1,1.5-3.5
	c0-1.3-0.5-2.4-1.4-3.4c-0.9-0.9-2.5-1.9-4.8-2.8c-1.7-0.8-3.1-1.6-4.3-2.4c-1.1-0.8-2-1.9-2.6-3.1s-0.9-2.6-0.9-4.3
	c0-1.8,0.4-3.4,1.2-4.9s2-2.7,3.6-3.6c1.6-0.9,3.7-1.4,6.1-1.4c1.4,0,2.7,0.2,4.1,0.6s2.4,0.9,3.2,1.6c-0.2,0.7-0.5,1.5-0.8,2.3
	s-0.5,1.6-0.8,2.4h-0.7c-0.4-1.1-1-2.1-1.9-2.9c-0.9-0.8-2.1-1.2-3.4-1.2c-3.5,0-5.2,1.6-5.2,4.7c0,1.8,1.4,3.3,4.1,4.7l3.5,1.7
	c2.6,1.2,4.3,2.7,5.3,4.3c0.9,1.6,1.4,3.4,1.4,5.3c0,1.6-0.4,3.1-1.1,4.3c-0.7,1.2-1.6,2.3-2.9,3.2c-1.2,0.9-2.5,1.5-4,1.9
	c-1.5,0.4-3,0.6-4.5,0.6c-2.9-0.1-5.4-0.8-7.5-2C373.1,78.9,373.5,76.9,373.8,75z M350.8,82.1V50.2h17.9c-0.1,0.5-0.2,1.2-0.4,2.1
	c0.1,0.5,0.2,1.1,0.3,1.9c-3.2-0.4-6.3-0.6-9.2-0.6h-1.5v10h6.1c1.9,0,3.3-0.1,4.5-0.4c0,0.5-0.1,0.9-0.2,1.3c0,0.4-0.1,0.7-0.1,0.9
	c0.1,0.6,0.2,1.2,0.3,1.9c-1.5-0.3-3.4-0.5-5.7-0.5h-4.9v11.9c3.7,0,7.3-0.2,10.9-0.7c-0.2,0.9-0.3,1.6-0.4,2.2
	c0.1,0.5,0.2,1.1,0.3,1.8L350.8,82.1L350.8,82.1z M307.1,82.4c0.8-4.7,1.7-9.9,2.5-15.6c0.8-5.7,1.6-11.2,2.4-16.6
	c0.3,0,0.6,0.1,1,0.1c0.4,0.1,0.7,0.1,0.9,0.1c0.9-0.1,1.6-0.2,1.9-0.3c2.4,5.2,6,12.5,10.8,22c1-1.9,2-3.8,2.9-5.7
	c1-1.9,1.8-3.6,2.6-5c0.7-1.5,1.6-3.2,2.7-5.4c1-2.1,2-4.1,2.8-5.9c0.3,0,1,0.1,2,0.3c0.5-0.1,1.1-0.2,1.9-0.3
	c0.4,3.5,0.7,6.3,1,8.6s0.5,4.6,0.9,7.2c0.3,2.6,0.7,5.2,1,7.8c0.4,2.6,0.8,5.5,1.2,8.6c-1.2-0.2-2.5-0.3-3.8-0.3
	c-1.3,0-2.5,0.1-3.8,0.3c-0.1-1.7-0.2-3.5-0.3-5.3c-0.1-1.8-0.3-3.4-0.4-4.6c-0.1-1.3-0.3-3.1-0.6-5.6c-0.3-2.4-0.5-4.5-0.7-6.3
	c-3.8,7.6-7.2,14.8-10.4,21.6h-1.7c-0.6-1.2-1.5-3.1-2.7-5.7c-1.2-2.5-2.2-4.5-2.8-5.8c-0.6-1.3-1.5-3-2.4-5c-1-2-1.8-3.6-2.3-4.7
	c-0.3,2.1-0.6,4.5-0.9,7.4s-0.6,5.5-0.8,7.9s-0.3,4.4-0.3,6.1c-0.5-0.1-0.8-0.1-1.1-0.1c-0.3,0-0.6-0.1-1.1-0.1
	C308.3,82.3,307.6,82.3,307.1,82.4z M279.6,69.7l-4.2-10.9L271,69.7H279.6z M262.1,82.3l13.3-32.5c0.3,0,0.5,0.1,0.8,0.1
	c0.3,0,0.6,0,0.9,0.1c1-0.1,1.7-0.1,1.8-0.1l13,32.5c-0.5,0-1.2-0.1-2.1-0.1c-0.9,0-1.6-0.1-2.1-0.1c-0.4,0-1,0.1-1.9,0.1
	c-0.8,0-1.5,0.1-1.9,0.1c-1-3.2-2.1-6.4-3.3-9.7h-10.9c-0.2,0.5-0.6,1.6-1.1,3.2s-1,2.9-1.4,3.8c-0.3,0.9-0.6,1.8-0.8,2.7
	c-0.3,0-0.6-0.1-1.1-0.1c-0.5,0-0.9-0.1-1.2-0.1c-0.2,0-0.5,0.1-1,0.1C262.6,82.2,262.3,82.3,262.1,82.3z M250.7,77.2v-27
	c0.9,0.1,2,0.1,3.5,0.3c0.4,0,0.8-0.1,1.2-0.1c0.4,0,0.8-0.1,1.2-0.1c0.4,0,0.8-0.1,1.1-0.1v26.5c0,2.4-0.2,4.2-0.6,5.7
	c-0.4,1.4-1.3,2.8-2.5,4c-1.8,1.7-4.2,2.7-7.2,3.1l-0.7-2.2c1.2-0.3,2.2-1,2.8-1.9c0.6-0.9,1-2,1.1-3.3
	C250.6,80.9,250.7,79.3,250.7,77.2z M226.2,82.1V50.2h17.9c-0.1,0.5-0.2,1.2-0.4,2.1c0.1,0.5,0.2,1.1,0.3,1.9
	c-3.2-0.4-6.3-0.6-9.2-0.6h-1.5v10h6.1c1.9,0,3.3-0.1,4.5-0.4c-0.1,0.5-0.1,0.9-0.2,1.3c-0.1,0.4-0.1,0.7-0.1,0.9
	c0.1,0.6,0.2,1.2,0.3,1.9c-1.5-0.3-3.4-0.5-5.7-0.5h-4.9v11.9c3.7,0,7.3-0.2,10.9-0.7c-0.2,0.9-0.3,1.6-0.4,2.2
	c0.1,0.5,0.2,1.1,0.3,1.8L226.2,82.1L226.2,82.1z M204.5,65.3c0.2,0,0.6,0.1,1.1,0.1c4.1,0,6.2-2.2,6.3-6.6c0-1.7-0.3-3-0.8-3.9
	c-0.5-0.9-1.2-1.4-2-1.7c-0.8-0.3-1.8-0.4-3-0.4h-1.6L204.5,65.3L204.5,65.3z M197.4,82.4V50.2h11.8c2.2,0,3.8,0.2,4.9,0.6
	c1.1,0.4,2.1,1,3.1,2c1.3,1.2,1.9,2.9,1.9,5c0,2.6-0.7,4.5-2.2,5.9c-1.5,1.3-3.2,2.2-5.1,2.6c1.1,1.9,2.1,3.5,3,4.9
	c0.9,1.4,2.1,3.4,3.8,5.9c1.6,2.5,2.7,4.3,3.4,5.3c-1.6-0.2-2.9-0.3-4.2-0.3c-1.3,0-2.7,0.1-4.3,0.3c-0.9-1.6-2-3.5-3.2-5.8
	s-2.2-4-3-5.2c-0.7-1.3-1.5-2.6-2.4-4.1h-0.3v15.1c-1.4-0.2-2.6-0.3-3.5-0.3C200,82.1,198.8,82.2,197.4,82.4z M159.6,67.1
	c0-2.1,0.3-4.2,1-6.2s1.7-3.9,3.2-5.6c1.5-1.7,3.5-3.1,6-4.1c2.5-1.1,5.5-1.6,9.1-1.7c4.3,0,8.1,0.9,11.4,2.8
	c-0.3,0.7-0.6,1.5-0.9,2.5s-0.4,1.7-0.5,2.3h-0.7c-1.1-1.7-2.5-2.9-4.2-3.7c-1.7-0.7-3.3-1.1-5-1.1c-1.7,0-3.3,0.3-4.7,1
	c-1.4,0.7-2.6,1.6-3.7,2.9c-1,1.3-1.8,2.9-2.4,4.7c-0.6,1.9-0.9,3.9-1,6.3c0,2.6,0.5,4.9,1.4,6.9c0.9,2,2.2,3.5,3.8,4.6
	c1.6,1.1,3.4,1.6,5.4,1.7c2-0.1,3.9-0.6,5.8-1.4v-11c1.2,0.2,2.4,0.3,3.5,0.3c1.1,0,2.3-0.1,3.6-0.3v13c-4.4,1.4-8.6,2.1-12.5,2.1
	c-2.2,0-4.3-0.3-6.5-0.8c-2.2-0.6-4.2-1.4-6-2.7s-3.3-2.9-4.4-5C160.2,72.4,159.6,69.9,159.6,67.1z M146.4,50.2
	c0.8,0.1,1.9,0.1,3.5,0.3c1.5-0.1,2.7-0.2,3.5-0.3v32.2c-1.2-0.2-2.4-0.3-3.6-0.3c-1,0-2.1,0.1-3.3,0.3V50.2z"/>
<path class="st0" d="M596,98.4c1.2,0.1,2.4,0.2,3.5,0.3c0.1,0,0.6-0.1,1.4-0.1c0.8-0.1,1.5-0.1,2.2-0.2v28.5c3,0,6.6-0.2,10.8-0.6
	c-0.1,0.5-0.3,1.2-0.4,2.1c0.1,0.6,0.2,1.2,0.3,1.9H596L596,98.4 M581,98.4c0.8,0.1,1.9,0.1,3.5,0.3c1.5-0.1,2.7-0.2,3.5-0.3v32.2
	c-1.2-0.2-2.5-0.3-3.6-0.3c-1,0-2.1,0.1-3.3,0.3L581,98.4L581,98.4z M556.6,123.2h0.9c0.4,1.5,1.1,2.7,2.1,3.6
	c1.1,0.9,2.5,1.4,4.3,1.5c1.5,0,2.8-0.4,3.8-1.3c1-0.9,1.5-2.1,1.5-3.5c0-1.3-0.5-2.4-1.4-3.4c-0.9-0.9-2.5-1.9-4.8-2.8
	c-1.7-0.8-3.2-1.6-4.3-2.4c-1.1-0.8-2-1.9-2.6-3.1c-0.6-1.2-0.9-2.6-0.9-4.3c0-1.8,0.4-3.4,1.2-4.9c0.8-1.5,2-2.7,3.6-3.6
	c1.6-0.9,3.7-1.4,6.1-1.4c1.4,0,2.7,0.2,4.1,0.6c1.3,0.4,2.4,0.9,3.2,1.6c-0.2,0.7-0.5,1.5-0.8,2.3c-0.3,0.8-0.5,1.6-0.8,2.4h-0.7
	c-0.4-1.1-1-2.1-1.9-2.9c-0.9-0.8-2.1-1.2-3.4-1.2c-3.5,0-5.2,1.6-5.2,4.7c0,1.8,1.4,3.3,4.1,4.7l3.5,1.7c2.6,1.2,4.3,2.7,5.3,4.3
	c0.9,1.6,1.4,3.4,1.4,5.3c0,1.6-0.4,3.1-1.1,4.3c-0.7,1.2-1.6,2.3-2.8,3.2c-1.2,0.9-2.5,1.5-4,1.9c-1.5,0.4-3,0.6-4.5,0.6
	c-2.9-0.1-5.4-0.8-7.5-2C555.9,127,556.3,125,556.6,123.2z M540.3,117.8l-4.2-10.9l-4.4,10.9H540.3z M522.7,130.4L536.1,98
	c0.3,0,0.5,0.1,0.8,0.1c0.3,0,0.6,0,0.9,0.1c1-0.1,1.7-0.1,1.8-0.1l13,32.5c-0.5,0-1.2-0.1-2.1-0.1c-0.9,0-1.6,0-2.1-0.1
	c-0.4,0-1,0.1-1.9,0.1c-0.8,0-1.5,0.1-1.9,0.1c-1-3.2-2.1-6.4-3.3-9.7h-10.9c-0.2,0.5-0.5,1.6-1.2,3.2c-0.6,1.6-1,2.9-1.4,3.8
	c-0.3,0.9-0.6,1.8-0.8,2.7c-0.3,0-0.6-0.1-1.1-0.1c-0.5,0-0.9-0.1-1.2-0.1c-0.2,0-0.5,0.1-1,0.1C523.3,130.4,523,130.4,522.7,130.4z
	 M504,113.5c0.2,0,0.6,0.1,1.1,0.1c4.1,0,6.2-2.2,6.3-6.6c0-1.7-0.3-3-0.8-3.9c-0.5-0.9-1.2-1.4-2-1.7c-0.8-0.3-1.8-0.4-3-0.4H504
	L504,113.5L504,113.5z M497,130.6V98.4h11.8c2.2,0,3.8,0.2,4.9,0.6c1.1,0.4,2.1,1,3,2c1.3,1.2,1.9,2.9,1.9,5c0,2.6-0.7,4.5-2.2,5.9
	c-1.5,1.3-3.2,2.2-5.1,2.6c1.1,1.9,2.1,3.5,3,4.9c0.9,1.4,2.2,3.4,3.8,5.9s2.7,4.3,3.4,5.3c-1.6-0.2-3-0.3-4.2-0.3
	c-1.3,0-2.7,0.1-4.3,0.3c-0.9-1.6-2-3.5-3.2-5.8s-2.2-4-3-5.2c-0.7-1.3-1.5-2.6-2.4-4.1h-0.3v15.1c-1.4-0.2-2.5-0.3-3.5-0.3
	C499.6,130.3,498.4,130.4,497,130.6z M483,106c0-3.4-1.8-5.1-5.3-5.1c-0.6,0-1.2,0.1-2.1,0.2v11c1.3,0,2.1,0,2.6-0.1
	c1-0.1,1.9-0.4,2.6-1s1.3-1.3,1.6-2.2C482.9,108,483,107.1,483,106z M483.5,121.4c0-4.3-2.1-6.5-6.5-6.5h-1.4v12.6h2.6
	c0.8,0,1.5-0.2,2.4-0.8c0.8-0.5,1.5-1.2,2-2.1C483.2,123.7,483.5,122.6,483.5,121.4z M468.6,130.3V98.4h12.7c1.7,0,3.2,0.3,4.6,0.9
	s2.4,1.4,3.1,2.5c0.7,1.1,1.1,2.4,1.1,3.8c-0.2,4-2.8,6.4-7.7,7.4v0.5c1.5,0.1,2.9,0.4,4.1,1s2.3,1.3,3.1,2.4
	c0.8,1.1,1.2,2.5,1.2,4.3c0,1.3-0.2,2.5-0.7,3.6c-0.5,1.1-1.2,2.1-2.2,2.9c-1,0.8-2.2,1.5-3.8,2c-1.5,0.5-3.2,0.7-5.2,0.7H468.6z
	 M442.7,113.4c0-2.5-0.4-4.8-1.2-6.8c-0.8-2-1.9-3.5-3.4-4.6s-3.2-1.7-5.1-1.7h-0.1c-3.5,0.1-6.2,1.6-7.9,4.4
	c-1.7,2.8-2.5,6.5-2.5,11.1c0.1,2.6,0.5,4.8,1.4,6.7c0.9,1.9,2,3.3,3.5,4.3s3,1.4,4.8,1.4c2.7,0,4.8-0.8,6.4-2.5
	c1.6-1.7,2.6-3.6,3.2-5.9C442.4,117.5,442.7,115.4,442.7,113.4z M414.7,114.5c0.1-2,0.4-4,1.1-6s1.7-3.8,3.2-5.4
	c1.4-1.6,3.3-3,5.6-4c2.3-1,5-1.5,8.1-1.5c3,0,5.6,0.4,7.9,1.3c2.3,0.9,4.1,2.1,5.6,3.6c1.5,1.5,2.6,3.3,3.3,5.3
	c0.7,2,1.1,4.1,1.1,6.4c0,2.6-0.5,4.9-1.4,7c-0.9,2-2.2,3.8-3.9,5.2c-1.7,1.4-3.6,2.5-5.9,3.3c-2.2,0.8-4.7,1.2-7.3,1.4
	c-2.4,0-4.9-0.5-7.5-1.4c-2.6-0.9-5-2.6-6.9-5c-2-2.4-3-5.6-3-9.6C414.7,114.9,414.7,114.7,414.7,114.5z M387.7,127.5h4.3
	c7.4,0,11.1-4.7,11.1-14c0-4.5-1-7.7-3-9.5s-4.5-2.8-7.7-2.8h-4.8L387.7,127.5L387.7,127.5z M380.8,130.3V98.4h15.9
	c2.5,0,4.8,0.6,7,1.6c2.2,1.1,3.9,2.8,5.2,5c1.3,2.2,2,4.9,2,8.1c0,3.3-0.7,6.2-2,8.8c-1.3,2.6-3.3,4.6-5.9,6.1
	c-2.6,1.5-5.9,2.2-9.6,2.2H380.8z M344.2,98.4c1.2,0.1,2.4,0.2,3.5,0.3c0.1,0,0.6-0.1,1.4-0.1c0.8-0.1,1.5-0.1,2.2-0.2v28.5
	c3,0,6.6-0.2,10.8-0.6c-0.1,0.5-0.3,1.2-0.4,2.1c0.1,0.6,0.2,1.2,0.3,1.9h-17.7V98.4z M327.4,117.8l-4.2-10.9l-4.4,10.9H327.4z
	 M309.9,130.4L323.2,98c0.3,0,0.5,0.1,0.8,0.1c0.3,0,0.6,0,0.9,0.1c1-0.1,1.7-0.1,1.8-0.1l13,32.5c-0.5,0-1.2-0.1-2.1-0.1
	c-0.9,0-1.6,0-2.1-0.1c-0.4,0-1,0.1-1.9,0.1c-0.8,0-1.5,0.1-1.9,0.1c-1-3.2-2.1-6.4-3.3-9.7h-11c-0.2,0.5-0.5,1.6-1.1,3.2
	c-0.6,1.6-1,2.9-1.4,3.8c-0.3,0.9-0.6,1.8-0.8,2.7c-0.3,0-0.6-0.1-1.1-0.1c-0.5,0-0.9-0.1-1.2-0.1c-0.2,0-0.5,0.1-1,0.1
	C310.4,130.4,310.1,130.4,309.9,130.4z M298,98.4c0.8,0.1,1.9,0.1,3.5,0.3c1.5-0.1,2.7-0.2,3.5-0.3v32.2c-1.2-0.2-2.4-0.3-3.6-0.3
	c-1,0-2.1,0.1-3.3,0.3L298,98.4L298,98.4z M268.3,127.5h4.3c7.4,0,11.1-4.7,11.1-14c0-4.5-1-7.7-3-9.5c-2-1.9-4.5-2.8-7.7-2.8h-4.8
	L268.3,127.5L268.3,127.5z M261.4,130.3V98.4h15.9c2.5,0,4.8,0.6,7,1.6c2.2,1.1,3.9,2.8,5.2,5c1.3,2.2,2,4.9,2,8.1
	c0,3.3-0.7,6.2-2,8.8c-1.3,2.6-3.3,4.6-5.9,6.1c-2.6,1.5-5.9,2.2-9.6,2.2H261.4z M225,130.4v-32h4.7c1.4,1.5,2.9,3.2,4.7,5.1
	c1.8,1.9,3.6,3.8,5.4,5.8c1.9,1.9,3.6,3.8,5.2,5.6c1.6,1.8,3.2,3.6,4.8,5.4V98.4c0.2,0,0.5,0.1,0.9,0.1s0.7,0.1,0.9,0.1
	c0.2,0,0.6-0.1,1-0.1c0.4,0,0.7-0.1,1-0.1v32.2l-3.9-0.1c-5.2-5.8-9.1-10.1-11.8-13.1c-2.7-2.9-5.7-6.1-9.1-9.6v22.6
	c-0.3,0-0.6-0.1-1.1-0.1c-0.4,0-0.8-0.1-1-0.1c-0.2,0-0.4,0.1-0.8,0.1C225.5,130.4,225.2,130.4,225,130.4z M188.8,118.3V98.4
	c1.3,0.2,2.4,0.3,3.5,0.3c1.1,0,2.3-0.1,3.5-0.3v18c0,1.6,0.1,3.2,0.4,4.6c0.3,1.4,0.7,2.6,1.1,3.3c1.6,2.4,3.8,3.6,6.8,3.6
	c1.7,0,3-0.2,4.1-0.7c1.1-0.5,2-1.3,2.9-2.4c0.9-1.3,1.5-2.8,1.7-4.6c0.2-1.8,0.4-3.8,0.4-5.9V98.4c0.2,0,0.5,0.1,0.9,0.1
	c0.4,0,0.7,0.1,0.9,0.1c0.2,0,0.5-0.1,0.9-0.1c0.4,0,0.7-0.1,1-0.1v17c0,2.8-0.2,5.1-0.7,7.1s-1.3,3.6-2.6,4.8
	c-0.9,0.8-1.9,1.5-2.8,2.1c-0.9,0.6-2.1,1-3.3,1.3c-1.3,0.3-2.7,0.5-4.4,0.5c-4.9,0-8.7-1.3-11.3-3.8
	C189.8,125.1,188.8,122.1,188.8,118.3z M144.7,130.6c0.8-4.7,1.7-10,2.5-15.6c0.8-5.7,1.6-11.2,2.3-16.6c0.3,0,0.6,0.1,1,0.1
	c0.4,0.1,0.7,0.1,0.9,0.1c0.9-0.1,1.6-0.2,1.9-0.3c2.4,5.2,6,12.5,10.8,22c1-1.9,2-3.8,2.9-5.7s1.8-3.6,2.6-5
	c0.7-1.5,1.6-3.2,2.7-5.4c1-2.1,2-4.1,2.8-5.9c0.3,0,1,0.1,2,0.3c0.5-0.1,1.1-0.2,1.9-0.3c0.4,3.5,0.7,6.3,0.9,8.6s0.5,4.6,0.9,7.2
	c0.3,2.6,0.7,5.2,1,7.8c0.4,2.6,0.8,5.5,1.2,8.6c-1.2-0.2-2.5-0.3-3.8-0.3c-1.3,0-2.6,0.1-3.8,0.3c-0.1-1.7-0.2-3.5-0.3-5.3
	c-0.1-1.8-0.3-3.4-0.4-4.6c-0.1-1.3-0.3-3.1-0.6-5.6c-0.3-2.4-0.5-4.5-0.7-6.3c-3.8,7.6-7.2,14.8-10.4,21.6h-1.7
	c-0.6-1.2-1.5-3.2-2.7-5.7c-1.2-2.5-2.2-4.5-2.8-5.8c-0.6-1.3-1.4-3-2.4-5c-1-2-1.8-3.6-2.3-4.7c-0.3,2.1-0.6,4.5-0.9,7.4
	s-0.6,5.5-0.8,7.9s-0.3,4.4-0.3,6.1c-0.4-0.1-0.8-0.1-1.1-0.1c-0.3,0-0.6-0.1-1.1-0.1C145.9,130.4,145.1,130.5,144.7,130.6z"/>
</svg>
